<svg width="100" height="100" viewBox="0 0 100 100" xmlns="http://www.w3.org/2000/svg">
  <defs>
    <linearGradient id="agGradient" x1="0%" y1="0%" x2="100%" y2="100%">
      <stop offset="0%" style="stop-color:#e17055;stop-opacity:1" />
      <stop offset="50%" style="stop-color:#d63031;stop-opacity:1" />
      <stop offset="100%" style="stop-color:#74b9ff;stop-opacity:1" />
    </linearGradient>
    <linearGradient id="goldGradient" x1="0%" y1="0%" x2="100%" y2="100%">
      <stop offset="0%" style="stop-color:#fdcb6e;stop-opacity:1" />
      <stop offset="100%" style="stop-color:#e17055;stop-opacity:1" />
    </linearGradient>
    <filter id="shadowAG" x="-50%" y="-50%" width="200%" height="200%">
      <feDropShadow dx="2" dy="4" stdDeviation="3" flood-color="#000" flood-opacity="0.4"/>
    </filter>
  </defs>
  
  <!-- Background Shield -->
  <path d="M 50 5 L 85 25 L 85 65 Q 85 80 50 95 Q 15 80 15 65 L 15 25 Z" fill="url(#agGradient)" stroke="#fff" stroke-width="2" filter="url(#shadowAG)"/>
  
  <!-- Inner Shield -->
  <path d="M 50 15 L 75 30 L 75 60 Q 75 70 50 80 Q 25 70 25 60 L 25 30 Z" fill="none" stroke="url(#goldGradient)" stroke-width="2"/>
  
  <!-- Letter A -->
  <g fill="url(#goldGradient)" stroke="#fff" stroke-width="1">
    <path d="M 35 65 L 42 35 L 48 35 L 55 65 L 50 65 L 48 55 L 42 55 L 40 65 Z"/>
    <rect x="43" y="48" width="4" height="3"/>
  </g>
  
  <!-- Letter G -->
  <g fill="url(#goldGradient)" stroke="#fff" stroke-width="1">
    <path d="M 65 35 Q 75 35 75 45 L 75 55 Q 75 65 65 65 Q 55 65 55 55 L 55 50 L 65 50 L 65 53 L 58 53 L 58 55 Q 58 60 65 60 Q 70 60 70 55 L 70 45 Q 70 40 65 40 Q 60 40 60 45 L 55 45 Q 55 35 65 35"/>
  </g>
  
  <!-- Crown Elements -->
  <g fill="#fdcb6e" opacity="0.8">
    <polygon points="45,20 50,15 55,20 52,25 48,25"/>
    <circle cx="40" cy="25" r="2"/>
    <circle cx="60" cy="25" r="2"/>
  </g>
  
  <!-- Gaming Elements -->
  <g fill="#fff" opacity="0.6">
    <circle cx="30" cy="40" r="1.5"/>
    <circle cx="70" cy="40" r="1.5"/>
    <polygon points="30,75 32,78 35,78 32,80 33,83 30,81 27,83 28,80 25,78 28,78"/>
    <polygon points="70,75 72,78 75,78 72,80 73,83 70,81 67,83 68,80 65,78 68,78"/>
  </g>
  
  <!-- Bottom Text -->
  <text x="50" y="90" text-anchor="middle" fill="#fff" font-size="8" font-weight="bold" font-family="Arial">AG</text>
</svg>