<svg width="15" height="43" viewBox="0 0 15 43" fill="none" xmlns="http://www.w3.org/2000/svg">
<path d="M14.5265 0.848923H0.473439C0.213625 0.848923 0 0.657398 0 0.424462C0 0.191526 0.213625 0 0.473439 0H14.5265C14.7863 0 14.9999 0.191526 14.9999 0.424462C14.9999 0.657398 14.7863 0.848923 14.5265 0.848923ZM4.20898 42.8189C4.08773 42.8189 3.96649 42.7774 3.87411 42.6946C3.68935 42.529 3.68935 42.2598 3.87411 42.0942L7.16508 39.1436C7.34984 38.978 7.65006 38.978 7.83482 39.1436C8.01958 39.3093 8.01958 39.5785 7.83482 39.7441L4.54385 42.6946C4.45147 42.7774 4.33022 42.8189 4.20898 42.8189Z" fill="#282828"/>
</svg>
