<svg width="44" height="28" viewBox="0 0 44 28" fill="none" xmlns="http://www.w3.org/2000/svg">
<path d="M41.3039 28H2.31802C1.0397 28 0 27.0271 0 25.8301V2.16991C0 0.972894 1.0397 0 2.31802 0H41.3039C42.5822 0 43.6219 0.972894 43.6219 2.16991V25.825C43.6276 27.0271 42.5879 28 41.3039 28ZM2.31802 0.835365C1.55103 0.835365 0.926071 1.43642 0.926071 2.175V25.8301C0.926071 26.5687 1.55103 27.1697 2.31802 27.1697H41.3039C42.0709 27.1697 42.6959 26.5687 42.6959 25.8301V2.16991C42.6959 1.43133 42.0709 0.830271 41.3039 0.830271H2.31802V0.835365Z" fill="#282828"/>
</svg>
