<svg width="6" height="5" viewBox="0 0 6 5" fill="none" xmlns="http://www.w3.org/2000/svg">
<path d="M0 2.5C-1.54336e-08 2.8283 0.0721231 3.15339 0.212256 3.4567C0.352389 3.76002 0.557788 4.03561 0.81672 4.26776C1.07565 4.49991 1.38305 4.68406 1.72136 4.80969C2.05967 4.93533 2.42227 4.99999 2.78846 4.99999C3.15464 4.99999 3.51724 4.93533 3.85555 4.80969C4.19387 4.68406 4.50126 4.49991 4.76019 4.26776C5.01913 4.03561 5.22452 3.76002 5.36466 3.4567C5.50479 3.15339 5.57691 2.8283 5.57691 2.5C5.57691 2.17169 5.50479 1.8466 5.36466 1.54329C5.22452 1.23998 5.01913 0.964378 4.76019 0.732232C4.50126 0.500086 4.19387 0.315938 3.85555 0.190301C3.51724 0.0646645 3.15464 0 2.78846 0C2.42227 0 2.05967 0.0646645 1.72136 0.190301C1.38305 0.315938 1.07565 0.500086 0.81672 0.732232C0.557788 0.964378 0.352389 1.23998 0.212256 1.54329C0.0721231 1.8466 -1.54336e-08 2.17169 0 2.5Z" fill="#1A6DFF"/>
</svg>
