<svg width="24" height="24" viewBox="0 0 24 24" fill="none" xmlns="http://www.w3.org/2000/svg">
  <defs>
    <linearGradient id="analyticsGradient" x1="0%" y1="0%" x2="100%" y2="100%">
      <stop offset="0%" style="stop-color:#e17055;stop-opacity:1" />
      <stop offset="100%" style="stop-color:#fd79a8;stop-opacity:1" />
    </linearGradient>
    <filter id="analyticsShadow" x="-50%" y="-50%" width="200%" height="200%">
      <feDropShadow dx="1" dy="2" stdDeviation="2" flood-color="#000" flood-opacity="0.2"/>
    </filter>
  </defs>
  
  <!-- Chart Background -->
  <rect x="2" y="4" width="20" height="16" rx="2" fill="none" stroke="url(#analyticsGradient)" stroke-width="1.5" filter="url(#analyticsShadow)"/>
  
  <!-- Bar Chart -->
  <rect x="5" y="14" width="2" height="4" fill="url(#analyticsGradient)" opacity="0.8"/>
  <rect x="8" y="12" width="2" height="6" fill="url(#analyticsGradient)" opacity="0.9"/>
  <rect x="11" y="10" width="2" height="8" fill="url(#analyticsGradient)"/>
  <rect x="14" y="13" width="2" height="5" fill="url(#analyticsGradient)" opacity="0.7"/>
  <rect x="17" y="11" width="2" height="7" fill="url(#analyticsGradient)" opacity="0.85"/>
  
  <!-- Trend Line -->
  <path d="M5 16 L9 14 L12 10 L15 13 L18 11" stroke="#fdcb6e" stroke-width="2" fill="none" opacity="0.8"/>
  
  <!-- Data Points -->
  <circle cx="6" cy="16" r="1.5" fill="#fdcb6e" opacity="0.9"/>
  <circle cx="9" cy="14" r="1.5" fill="#fdcb6e"/>
  <circle cx="12" cy="10" r="1.5" fill="#fdcb6e"/>
  <circle cx="15" cy="13" r="1.5" fill="#fdcb6e" opacity="0.8"/>
  <circle cx="18" cy="11" r="1.5" fill="#fdcb6e" opacity="0.9"/>
  
  <!-- Growth Arrow -->
  <path d="M19 7 L21 5 L19 3" stroke="#00b894" stroke-width="2" fill="none" stroke-linecap="round" stroke-linejoin="round"/>
  <line x1="15" y1="5" x2="21" y2="5" stroke="#00b894" stroke-width="2" stroke-linecap="round"/>
</svg>