<svg width="24" height="24" viewBox="0 0 24 24" fill="none" xmlns="http://www.w3.org/2000/svg">
  <defs>
    <linearGradient id="playersGradient" x1="0%" y1="0%" x2="100%" y2="100%">
      <stop offset="0%" style="stop-color:#00b894;stop-opacity:1" />
      <stop offset="100%" style="stop-color:#00cec9;stop-opacity:1" />
    </linearGradient>
    <filter id="playersShadow" x="-50%" y="-50%" width="200%" height="200%">
      <feDropShadow dx="1" dy="2" stdDeviation="2" flood-color="#000" flood-opacity="0.2"/>
    </filter>
  </defs>
  
  <!-- Main Player -->
  <circle cx="12" cy="8" r="4" fill="url(#playersGradient)" filter="url(#playersShadow)"/>
  <path d="M12 12c-3 0-6 1.5-6 4v2c0 1 0.5 1.5 1.5 1.5h9c1 0 1.5-0.5 1.5-1.5v-2c0-2.5-3-4-6-4z" fill="url(#playersGradient)" filter="url(#playersShadow)"/>
  
  <!-- Team Members -->
  <circle cx="5" cy="10" r="2.5" fill="url(#playersGradient)" opacity="0.7"/>
  <path d="M5 13c-2 0-4 1-4 2.5v1c0 0.5 0.3 1 1 1h6c-0.5-0.5-1-1.5-1-2.5v-2z" fill="url(#playersGradient)" opacity="0.7"/>
  
  <circle cx="19" cy="10" r="2.5" fill="url(#playersGradient)" opacity="0.7"/>
  <path d="M19 13c2 0 4 1 4 2.5v1c0 0.5-0.3 1-1 1h-6c0.5-0.5 1-1.5 1-2.5v-2z" fill="url(#playersGradient)" opacity="0.7"/>
  
  <!-- Gaming Elements -->
  <circle cx="8" cy="4" r="1" fill="#fdcb6e" opacity="0.8"/>
  <circle cx="16" cy="4" r="1" fill="#fdcb6e" opacity="0.8"/>
  <polygon points="12,2 13,4 11,4" fill="#e17055" opacity="0.6"/>
</svg>