<svg width="26" height="15" viewBox="0 0 26 15" fill="none" xmlns="http://www.w3.org/2000/svg">
<path d="M22.7626 5.80542C20.9781 5.80542 19.5249 4.50259 19.5249 2.90271C19.5249 1.30283 20.9781 0 22.7626 0C24.547 0 26.0002 1.30283 26.0002 2.90271C26.0002 4.50259 24.547 5.80542 22.7626 5.80542ZM22.7626 0.844235C21.5012 0.844235 20.4724 1.76664 20.4724 2.8975C20.4724 4.02835 21.5012 4.95076 22.7626 4.95076C24.0239 4.95076 25.0527 4.02835 25.0527 2.8975C25.0527 1.76664 24.0239 0.844235 22.7626 0.844235ZM0.476942 14.8054C0.349064 14.8054 0.226999 14.7585 0.128184 14.6699C-0.0520071 14.4979 -0.0403822 14.2269 0.151435 14.0706L6.92315 8.36418C7.11497 8.20262 7.41722 8.21305 7.5916 8.38502C7.77179 8.557 7.76017 8.82798 7.56835 8.98432L0.802449 14.6907C0.709447 14.7637 0.593195 14.8054 0.476942 14.8054Z" fill="#282828"/>
</svg>
