<svg width="25" height="13" viewBox="0 0 25 13" fill="none" xmlns="http://www.w3.org/2000/svg">
<path d="M0.480556 12.5864C0.274242 12.5864 0.079719 12.4648 0.0207723 12.2799C-0.0558583 12.0526 0.0856137 11.8095 0.344979 11.7408L8.86277 9.44187C9.11625 9.37317 9.3874 9.50529 9.46403 9.73254C9.54066 9.95979 9.39919 10.2029 9.13982 10.2716L0.622027 12.5705C0.57487 12.5811 0.527713 12.5864 0.480556 12.5864ZM14.1916 8.11537C14.0501 8.11537 13.9086 8.05724 13.8143 7.95154C13.6492 7.76128 13.6846 7.49176 13.8968 7.34378L24.2184 0.0929296C24.4247 -0.0550469 24.7312 -0.023338 24.8963 0.166918C25.0613 0.357173 25.026 0.626702 24.8137 0.774678L14.4863 8.02553C14.3979 8.08895 14.2918 8.11537 14.1916 8.11537Z" fill="#282828"/>
</svg>
