<svg width="24" height="24" viewBox="0 0 24 24" fill="none" xmlns="http://www.w3.org/2000/svg">
  <defs>
    <linearGradient id="settingsGradient" x1="0%" y1="0%" x2="100%" y2="100%">
      <stop offset="0%" style="stop-color:#636e72;stop-opacity:1" />
      <stop offset="100%" style="stop-color:#b2bec3;stop-opacity:1" />
    </linearGradient>
    <filter id="settingsShadow" x="-50%" y="-50%" width="200%" height="200%">
      <feDropShadow dx="1" dy="2" stdDeviation="2" flood-color="#000" flood-opacity="0.2"/>
    </filter>
  </defs>
  
  <!-- Main Gear -->
  <path d="M12 2l1.09 3.26L16 4.5l-0.5 3.5L18.5 9l-2 3L19 14.5l-3.26 1.09L16 18.5l-3.5-0.5L11 20.5l-3-2L5.5 19l-1.09-3.26L2 16l0.5-3.5L0.5 11l2-3L1 5.5l3.26-1.09L4 2.5l3.5 0.5L9 0.5l3 2z" fill="url(#settingsGradient)" filter="url(#settingsShadow)" transform="scale(0.8) translate(3,3)"/>
  
  <!-- Simplified Gear Shape -->
  <circle cx="12" cy="12" r="8" fill="url(#settingsGradient)" filter="url(#settingsShadow)"/>
  
  <!-- Gear Teeth -->
  <g fill="url(#settingsGradient)">
    <rect x="11" y="2" width="2" height="3" rx="1"/>
    <rect x="11" y="19" width="2" height="3" rx="1"/>
    <rect x="2" y="11" width="3" height="2" rx="1"/>
    <rect x="19" y="11" width="3" height="2" rx="1"/>
    
    <rect x="5.5" y="4.5" width="2" height="2" rx="1" transform="rotate(45 6.5 5.5)"/>
    <rect x="16.5" y="4.5" width="2" height="2" rx="1" transform="rotate(-45 17.5 5.5)"/>
    <rect x="5.5" y="17.5" width="2" height="2" rx="1" transform="rotate(-45 6.5 18.5)"/>
    <rect x="16.5" y="17.5" width="2" height="2" rx="1" transform="rotate(45 17.5 18.5)"/>
  </g>
  
  <!-- Center Circle -->
  <circle cx="12" cy="12" r="4" fill="#fff" opacity="0.9"/>
  <circle cx="12" cy="12" r="2" fill="url(#settingsGradient)"/>
  
  <!-- Configuration Dots -->
  <circle cx="12" cy="8" r="0.5" fill="#74b9ff" opacity="0.8"/>
  <circle cx="12" cy="16" r="0.5" fill="#74b9ff" opacity="0.8"/>
  <circle cx="8" cy="12" r="0.5" fill="#74b9ff" opacity="0.8"/>
  <circle cx="16" cy="12" r="0.5" fill="#74b9ff" opacity="0.8"/>
</svg>