<svg width="24" height="24" viewBox="0 0 24 24" fill="none" xmlns="http://www.w3.org/2000/svg">
  <defs>
    <linearGradient id="clubsGradient" x1="0%" y1="0%" x2="100%" y2="100%">
      <stop offset="0%" style="stop-color:#6c5ce7;stop-opacity:1" />
      <stop offset="100%" style="stop-color:#a29bfe;stop-opacity:1" />
    </linearGradient>
    <filter id="clubsShadow" x="-50%" y="-50%" width="200%" height="200%">
      <feDropShadow dx="1" dy="2" stdDeviation="2" flood-color="#000" flood-opacity="0.2"/>
    </filter>
  </defs>
  
  <!-- Shield Background -->
  <path d="M12 2L4 6v6c0 5.5 3.8 10.7 8 12 4.2-1.3 8-6.5 8-12V6l-8-4z" fill="url(#clubsGradient)" filter="url(#clubsShadow)"/>
  
  <!-- Inner Shield -->
  <path d="M12 4L6 7v5c0 4 2.8 7.8 6 8.5 3.2-0.7 6-4.5 6-8.5V7l-6-3z" fill="none" stroke="#fff" stroke-width="1" opacity="0.6"/>
  
  <!-- Crown -->
  <polygon points="9,8 12,6 15,8 14,10 13,9 12,10 11,9 10,10" fill="#fdcb6e" opacity="0.9"/>
  
  <!-- Club Emblem -->
  <circle cx="12" cy="13" r="3" fill="#fff" opacity="0.3"/>
  <text x="12" y="16" text-anchor="middle" fill="#fff" font-size="6" font-weight="bold" font-family="Arial">C</text>
  
  <!-- Decorative Elements -->
  <circle cx="8" cy="11" r="0.5" fill="#fff" opacity="0.7"/>
  <circle cx="16" cy="11" r="0.5" fill="#fff" opacity="0.7"/>
  <circle cx="12" cy="18" r="0.5" fill="#fff" opacity="0.5"/>
</svg>